<svg
  width="24"
  height="24"
  xmlns="http://www.w3.org/2000/svg"
  version="1.1"
>
  <g>
    <g stroke="null" id="svgg">
      <path
        stroke="null"
        id="path0"
        d="m1.71455,4.97756c-0.37199,0.06053 -0.45007,0.23441 -0.44979,1.00142c0.00019,0.73451 0.05867,0.87238 0.40978,0.96697c0.08179,0.022 3.57389,0.03026 10.44279,0.02469l10.31997,-0.00845l0.13805,-0.0791c0.23042,-0.13192 0.25502,-0.21918 0.25511,-0.90413c0.00009,-0.76896 -0.07148,-0.92938 -0.447,-1.00197c-0.17035,-0.03296 -20.46661,-0.0324 -20.6689,0.00056m-0.09051,6.13262c-0.29772,0.08689 -0.35955,0.25279 -0.35955,0.96493c0,0.69747 0.03621,0.80776 0.30924,0.94228l0.14965,0.0738l10.32414,0l10.32414,0l0.16218,-0.08197c0.26839,-0.13563 0.2967,-0.22466 0.2967,-0.93411c0,-0.67157 -0.02776,-0.77629 -0.24109,-0.90895l-0.11939,-0.07427l-10.37335,-0.00538c-5.93748,-0.00306 -10.41587,0.00706 -10.47268,0.02367m0.00706,6.10895c-0.31518,0.11242 -0.36373,0.24128 -0.36521,0.96855c-0.00149,0.74928 0.07278,0.91359 0.4458,0.98563c0.18669,0.03602 20.48508,0.03602 20.67178,0c0.34544,-0.06675 0.43484,-0.22689 0.45573,-0.81621c0.02841,-0.80098 -0.06118,-1.05405 -0.40699,-1.15005c-0.20832,-0.05784 -20.63835,-0.04595 -20.8011,0.01207"
        fill="#727272"
        fill-rule="evenodd"
      />
    </g>
  </g>
</svg>